<svg id="Capa_1" enable-background="new 0 0 512 512" height="512" viewBox="0 0 512 512" width="512" xmlns="http://www.w3.org/2000/svg"><g><path d="m239.94 0c-8.284 0-15 6.716-15 15v81.375h-34.24v-81.375c0-8.284-6.716-15-15-15s-15 6.716-15 15v81.375h-34.24v-81.375c0-8.284-6.716-15-15-15s-15 6.716-15 15v166.776c0 11.821 6.569 22.446 17.141 27.729l14.428 7.212c.34.17.551.513.551.894v263.189c0 17.094 13.907 31 31 31h32.24c17.093 0 31-13.906 31-31v-263.19c0-.381.211-.724.554-.895l14.425-7.21c10.573-5.283 17.142-15.908 17.142-27.729 0-10.306 0-162.084 0-166.776-.001-8.284-6.717-15-15.001-15zm-15 181.776c0 .381-.211.724-.553.895l-14.424 7.21c-10.574 5.283-17.143 15.908-17.143 27.729v263.19c0 .552-.449 1-1 1h-32.24c-.551 0-1-.448-1-1v-263.19c0-11.821-6.569-22.446-17.141-27.729l-14.428-7.212c-.34-.17-.551-.513-.551-.894v-55.401h98.48z"/><path d="m304.18.64c-8.284 0-15 6.716-15 15v465.36c0 17.094 13.907 31 31 31h32.24c17.093 0 31-13.906 31-31v-145.86h17.12c8.284 0 15-6.716 15-15v-208.14c0-61.404-49.956-111.36-111.36-111.36zm49.24 480.36c0 .552-.449 1-1 1h-32.24c-.551 0-1-.448-1-1v-145.86h34.24zm32.12-175.86c-7.528 0-58.893 0-66.36 0v-273.115c37.722 7.06 66.36 40.235 66.36 79.975z"/></g></svg>